<svg width="26" height="20" viewBox="0 0 26 20" fill="none" xmlns="http://www.w3.org/2000/svg">
<path d="M1.41931 0.880876C1.00338 0.947424 0.630931 1.17647 0.383886 1.51763C0.13684 1.85878 0.0354369 2.28411 0.101985 2.70003C0.168532 3.11595 0.397579 3.4884 0.738738 3.73545C1.0799 3.98249 1.50522 4.0839 1.92114 4.01735H6.62587L6.90815 4.80147L8.19411 8.72206L9.48007 12.6426C9.60553 13.0504 10.1387 13.4268 10.5465 13.4268H21.5242C21.9633 13.4268 22.4651 13.0504 22.5906 12.6426L25.1311 4.80147C25.2566 4.39372 25.0684 4.01735 24.6293 4.01735H10.7033L9.51143 1.75909C9.38449 1.49989 9.18847 1.28075 8.94498 1.1258C8.70148 0.970844 8.41995 0.886094 8.13138 0.880876L1.85841 0.880876C1.76451 0.87239 1.67003 0.87239 1.57613 0.880876C1.51346 0.877109 1.45062 0.877109 1.38794 0.880876L1.41931 0.880876ZM11.3306 16.5632C10.4524 16.5632 9.76235 17.2533 9.76235 18.1315C9.76235 19.0097 10.4524 19.6997 11.3306 19.6997C12.2088 19.6997 12.8988 19.0097 12.8988 18.1315C12.8988 17.2533 12.2088 16.5632 11.3306 16.5632ZM20.74 16.5632C19.8618 16.5632 19.1718 17.2533 19.1718 18.1315C19.1718 19.0097 19.8618 19.6997 20.74 19.6997C21.6183 19.6997 22.3083 19.0097 22.3083 18.1315C22.3083 17.2533 21.6183 16.5632 20.74 16.5632Z" fill="#CA5310"/>
</svg>
