<svg width="36" height="37" viewBox="0 0 36 37" fill="none" xmlns="http://www.w3.org/2000/svg">
<rect y="0.375" width="36" height="36" rx="8" fill="white"/>
<path fill-rule="evenodd" clip-rule="evenodd" d="M9 18.375C9 14.7799 9 12.9823 9.85669 11.6876C10.2392 11.1094 10.7344 10.6142 11.3126 10.2317C12.6073 9.375 14.4049 9.375 18 9.375C21.5951 9.375 23.3927 9.375 24.6874 10.2317C25.2656 10.6142 25.7608 11.1094 26.1433 11.6876C27 12.9823 27 14.7799 27 18.375C27 21.9701 27 23.7677 26.1433 25.0624C25.7608 25.6406 25.2656 26.1358 24.6874 26.5183C23.3927 27.375 21.5951 27.375 18 27.375C14.4049 27.375 12.6073 27.375 11.3126 26.5183C10.7344 26.1358 10.2392 25.6406 9.85669 25.0624C9 23.7677 9 21.9701 9 18.375ZM22.6593 18.3752C22.6593 20.9485 20.5732 23.0346 17.9998 23.0346C15.4265 23.0346 13.3404 20.9485 13.3404 18.3752C13.3404 15.8019 15.4265 13.7158 17.9998 13.7158C20.5732 13.7158 22.6593 15.8019 22.6593 18.3752ZM17.9998 21.4582C19.7025 21.4582 21.0828 20.0779 21.0828 18.3752C21.0828 16.6725 19.7025 15.2922 17.9998 15.2922C16.2971 15.2922 14.9168 16.6725 14.9168 18.3752C14.9168 20.0779 16.2971 21.4582 17.9998 21.4582ZM22.8433 14.5765C23.4479 14.5765 23.9381 14.0864 23.9381 13.4817C23.9381 12.8771 23.4479 12.3869 22.8433 12.3869C22.2386 12.3869 21.7485 12.8771 21.7485 13.4817C21.7485 14.0864 22.2386 14.5765 22.8433 14.5765Z" fill="#CA5310"/>
</svg>
