<svg width="57" height="81" viewBox="0 0 57 81" fill="none" xmlns="http://www.w3.org/2000/svg">
<g clip-path="url(#clip0_692_3262)">
<path d="M14.0682 26.9126C14.7083 26.9126 15.2272 27.4314 15.2272 28.0716C15.2272 28.7117 14.7083 29.2305 14.0682 29.2305C10.3595 29.2305 6.91382 27.2264 5.07607 24.0006C4.75928 23.4444 4.95335 22.7368 5.5094 22.4199C6.06571 22.1029 6.7732 22.297 7.09012 22.8532C8.51669 25.3571 11.1903 26.9126 14.0682 26.9126ZM14.0039 38.0394V46.4143C14.0039 47.0545 14.5228 47.5733 15.1629 47.5733C15.8031 47.5733 16.3219 47.0545 16.3219 46.4143V38.0394C16.3219 37.3993 15.8031 36.8804 15.1629 36.8804C14.5228 36.8804 14.0039 37.3993 14.0039 38.0394ZM31.2067 28.0716C31.2067 28.7117 31.7255 29.2305 32.3656 29.2305C34.4824 29.2305 36.518 28.595 38.2521 27.3928C38.7781 27.0281 38.909 26.306 38.5443 25.78C38.1796 25.2538 37.4574 25.123 36.9315 25.4878C35.5872 26.4199 34.0084 26.9124 32.3658 26.9124C31.7255 26.9126 31.2067 27.4314 31.2067 28.0716ZM37.2279 36.771C36.5878 36.771 36.069 37.2898 36.069 37.93V49.0807C35.8423 49.3223 34.858 49.9152 32.3091 50.4236C29.8957 50.905 26.7893 51.1701 23.5618 51.1701C20.3344 51.1701 17.228 50.905 14.8146 50.4236C12.2659 49.9153 11.2814 49.3223 11.0549 49.0807V34.2304C11.491 34.2771 11.9335 34.3011 12.382 34.3011C15.2028 34.3011 17.9633 33.3267 20.1544 31.5574C20.6524 31.1553 20.7301 30.4257 20.328 29.9276C19.9259 29.4297 19.1963 29.3515 18.6982 29.754C16.8922 31.2123 14.7081 31.9831 12.382 31.9831C6.83269 31.9831 2.31796 27.4684 2.31796 21.9192C2.31796 16.37 6.83269 11.8555 12.3819 11.8555C12.6994 11.8555 13.0252 11.8712 13.3505 11.9021C13.8328 11.9477 14.2918 11.69 14.5029 11.2548C16.2027 7.75427 19.6737 5.57989 23.5616 5.57989C27.4498 5.57989 30.9209 7.7544 32.6206 11.2545C32.8319 11.6898 33.2914 11.9481 33.773 11.902C34.0975 11.8712 34.4233 11.8555 34.7415 11.8555C35.3817 11.8555 35.9005 11.3367 35.9005 10.6965C35.9005 10.0564 35.3817 9.53755 34.7415 9.53755C34.6081 9.53755 34.4738 9.53987 34.3389 9.54425C33.3434 7.78749 31.9319 6.29717 30.2208 5.20348C28.2331 3.93337 25.9306 3.26194 23.5616 3.26194C21.193 3.26194 18.8904 3.93337 16.9028 5.20374C15.1916 6.2973 13.7801 7.78762 12.7847 9.54425C12.6496 9.53987 12.5152 9.53755 12.3819 9.53755C5.5546 9.53742 0 15.0919 0 21.9192C0 27.4785 3.68285 32.1939 8.7369 33.7536V49.201C8.7369 50.6944 10.3407 51.7875 13.6399 52.5426C16.3035 53.1521 19.827 53.488 23.5618 53.488C27.2967 53.488 30.8203 53.1522 33.4839 52.5426C36.7831 51.7875 38.3869 50.6943 38.3869 49.201V37.93C38.3869 37.2898 37.8681 36.771 37.2279 36.771ZM49.9141 8.25507C49.274 8.25507 48.7551 8.77391 48.7551 9.41405V17.789C48.7551 18.4291 49.274 18.9479 49.9141 18.9479C50.5543 18.9479 51.0731 18.4291 51.0731 17.789V9.41405C51.0731 8.77391 50.5543 8.25507 49.9141 8.25507ZM41.1303 29.6957C39.3373 31.1707 37.0684 31.9831 34.7417 31.9831C32.4157 31.9831 30.2317 31.2124 28.4254 29.7539C27.9275 29.3518 27.1976 29.4297 26.7956 29.9277C26.3935 30.4257 26.4712 31.1553 26.9694 31.5575C29.1608 33.3266 31.921 34.3011 34.7417 34.3011C37.6042 34.3011 40.3961 33.3013 42.603 31.4858C43.0974 31.0792 43.1685 30.3488 42.7617 29.8544C42.355 29.36 41.6246 29.2889 41.1303 29.6957ZM56.25 5.43348V21.5308C56.25 23.7741 52.6421 24.8893 48.7402 25.0713V42.3824C50.0972 42.8614 51.0723 44.1568 51.0723 45.6758V51.1542C51.0723 53.0791 49.5062 54.6451 47.5812 54.6451C45.656 54.6451 44.09 53.0791 44.09 51.1542V45.6758C44.09 44.1566 45.0651 42.8612 46.4222 42.3824V25.0713C42.5202 24.8893 38.9123 23.7741 38.9123 21.5308V5.43348C38.9123 5.16781 39.0017 4.92275 39.1522 4.7274C40.1757 2.80015 44.2486 2.10489 47.5812 2.10489C50.9128 2.10489 54.9841 2.80002 56.0089 4.72598C56.16 4.92159 56.25 5.16704 56.25 5.43348ZM47.5811 44.5027H47.5807C46.934 44.5027 46.4078 45.029 46.4078 45.6758V51.1542C46.4078 51.8009 46.934 52.3272 47.5807 52.3272C48.2279 52.3272 48.7542 51.8009 48.7542 51.1542V45.6758C48.7544 45.029 48.2281 44.5027 47.5811 44.5027ZM53.932 5.77022C53.5752 5.3414 51.4046 4.42272 47.5812 4.42272C43.7588 4.42272 41.5883 5.34076 41.2303 5.76984V21.4332C41.5889 21.8625 43.7597 22.7802 47.5812 22.7802C51.4028 22.7802 53.5733 21.8625 53.932 21.4332V5.77022ZM45.2479 8.25507C44.6078 8.25507 44.089 8.77391 44.089 9.41405V17.789C44.089 18.4291 44.6078 18.9479 45.2479 18.9479C45.8881 18.9479 46.4069 18.4291 46.4069 17.789V9.41405C46.4069 8.77391 45.8881 8.25507 45.2479 8.25507Z" fill="white"/>
</g>
<path d="M7.89255 63.2206V65.2377H11.1843V66.5H6.37043V58.7656H11.1596L10.9739 60.0279H7.89255V62.045H10.7141V63.2206H7.89255ZM12.9369 66.5V58.7656H14.459V65.2377H17.1939V66.5H12.9369ZM21.6226 58.7656H24.7164C25.4836 58.7656 26.0446 58.9224 26.3994 59.2359C26.7541 59.5494 26.9315 60.0402 26.9315 60.7085C26.9315 61.1457 26.8655 61.5129 26.7335 61.8099C26.6097 62.1069 26.4159 62.342 26.1519 62.5152V62.5895C26.5149 62.705 26.7995 62.9195 27.0057 63.233C27.212 63.5382 27.3151 63.9012 27.3151 64.322C27.3151 65.0232 27.1254 65.5636 26.7459 65.9431C26.3746 66.3144 25.8342 66.5 25.1247 66.5H21.6226V58.7656ZM23.1447 66.0545L22.4889 65.3862H24.8525C25.1825 65.3862 25.4176 65.2955 25.5579 65.114C25.7064 64.9325 25.7806 64.6314 25.7806 64.2106C25.7806 63.8146 25.7105 63.5382 25.5702 63.3815C25.43 63.2165 25.1949 63.134 24.8649 63.134H22.9467V62.0574H24.5307C24.8607 62.0574 25.0876 61.979 25.2114 61.8222C25.3434 61.6655 25.4094 61.385 25.4094 60.9807C25.4094 60.56 25.3475 60.2712 25.2237 60.1145C25.1 59.9577 24.8731 59.8794 24.5431 59.8794H22.4889L23.1447 59.2111V66.0545ZM31.9679 66.6856C31.3492 66.6856 30.8418 66.6444 30.4458 66.5619C30.0498 66.4876 29.7404 66.3556 29.5177 66.1659C29.2949 65.9679 29.1382 65.6956 29.0474 65.3491C28.9567 65.0026 28.9113 64.5654 28.9113 64.0374V58.7656H30.4334V65.3862H32.0298C32.434 65.3862 32.7434 65.3697 32.9579 65.3367C33.1724 65.2955 33.3168 65.2295 33.391 65.1387C33.4735 65.0397 33.5148 64.9036 33.5148 64.7304V58.7656H35.0369V64.0374C35.0369 64.5654 34.9915 65.0026 34.9008 65.3491C34.81 65.6956 34.6533 65.9679 34.4305 66.1659C34.2078 66.3556 33.8943 66.4876 33.49 66.5619C33.094 66.6444 32.5867 66.6856 31.9679 66.6856ZM38.6222 63.2206V65.2377H41.9139V66.5H37.1001V58.7656H41.8892L41.7036 60.0279H38.6222V62.045H41.4437V63.2206H38.6222ZM43.7284 66.5V58.7656H45.2134L47.9112 63.1092C48.0267 63.3072 48.1051 63.4557 48.1463 63.5547C48.1958 63.6537 48.2206 63.7692 48.2206 63.9012H48.2948V58.7656H49.8169V66.5H48.3319L45.6466 62.1564C45.5228 61.9584 45.4403 61.8099 45.3991 61.7109C45.3578 61.6119 45.3331 61.4964 45.3248 61.3644H45.2506V66.5H43.7284ZM10.4169 77.1016C10.7716 77.2006 11.1635 77.279 11.5925 77.3367C12.0297 77.3862 12.4546 77.411 12.8671 77.411C13.0734 77.411 13.2714 77.4069 13.4611 77.3986C13.6509 77.3904 13.886 77.3697 14.1665 77.3367V75.4186L13.0156 75.3196C12.4794 75.2784 12.0339 75.2124 11.6791 75.1216C11.3326 75.0309 11.0562 74.903 10.85 74.738C10.6437 74.5647 10.4994 74.3461 10.4169 74.0821C10.3344 73.8099 10.2931 73.4757 10.2931 73.0797C10.2931 72.461 10.3756 71.9701 10.5406 71.6071C10.7056 71.2441 10.9737 70.9842 11.345 70.8275C11.7162 70.6625 12.2071 70.58 12.8176 70.58C13.2631 70.58 13.6962 70.6006 14.117 70.6419C14.546 70.6831 14.9791 70.7532 15.4164 70.8522L15.2184 72.0526C14.8389 71.9784 14.4759 71.9289 14.1294 71.9041C13.7911 71.8711 13.4199 71.8546 13.0156 71.8546C12.7764 71.8546 12.5825 71.8587 12.434 71.867C12.2855 71.8752 12.1246 71.8917 11.9514 71.9165V73.8594L13.2136 73.946C13.8654 73.9955 14.381 74.1027 14.7605 74.2677C15.14 74.4245 15.4122 74.6679 15.5772 74.9979C15.7422 75.3279 15.8247 75.7651 15.8247 76.3096C15.8247 76.8871 15.7257 77.3532 15.5277 77.708C15.338 78.0545 15.0245 78.3061 14.5872 78.4629C14.1582 78.6114 13.5849 78.6856 12.8671 78.6856C12.3969 78.6856 11.9431 78.6568 11.5059 78.599C11.0686 78.5495 10.6314 78.467 10.1941 78.3515L10.4169 77.1016ZM16.6195 78.5L18.8347 70.7656H21.1612L23.3763 78.5H21.8542L20.0474 72.1887H19.936L18.1417 78.5H16.6195ZM17.8199 76.8789V75.7156H22.1883V76.8789H17.8199ZM24.7284 70.7656H27.8222C28.5894 70.7656 29.1504 70.9224 29.5052 71.2359C29.8599 71.5494 30.0373 72.0402 30.0373 72.7085C30.0373 73.1457 29.9713 73.5129 29.8393 73.8099C29.7156 74.1069 29.5217 74.342 29.2577 74.5152V74.5895C29.6207 74.705 29.9053 74.9195 30.1116 75.233C30.3178 75.5382 30.4209 75.9012 30.4209 76.322C30.4209 77.0232 30.2312 77.5636 29.8517 77.9431C29.4804 78.3144 28.9401 78.5 28.2306 78.5H24.7284V70.7656ZM26.2506 78.0545L25.5947 77.3862H27.9583C28.2883 77.3862 28.5234 77.2955 28.6637 77.114C28.8122 76.9325 28.8864 76.6314 28.8864 76.2106C28.8864 75.8146 28.8163 75.5382 28.6761 75.3815C28.5358 75.2165 28.3007 75.134 27.9707 75.134H26.0526V74.0574H27.6366C27.9666 74.0574 28.1934 73.979 28.3172 73.8222C28.4492 73.6655 28.5152 73.385 28.5152 72.9807C28.5152 72.56 28.4533 72.2712 28.3296 72.1145C28.2058 71.9577 27.9789 71.8794 27.6489 71.8794H25.5947L26.2506 71.2111V78.0545ZM31.8439 74.639C31.8439 73.814 31.8893 73.1375 31.98 72.6095C32.079 72.0815 32.244 71.669 32.475 71.372C32.7143 71.075 33.0443 70.8687 33.465 70.7532C33.894 70.6377 34.4426 70.58 35.1109 70.58C35.7626 70.58 36.303 70.6377 36.732 70.7532C37.161 70.8687 37.491 71.0791 37.722 71.3844C37.9613 71.6814 38.1304 72.0939 38.2294 72.6219C38.3284 73.1416 38.3779 73.814 38.3779 74.639C38.3779 75.464 38.3284 76.1405 38.2294 76.6685C38.1304 77.1882 37.9613 77.5966 37.722 77.8936C37.491 78.1906 37.161 78.3969 36.732 78.5124C36.303 78.6279 35.7626 78.6856 35.1109 78.6856C34.4426 78.6856 33.894 78.6279 33.465 78.5124C33.0443 78.3969 32.7143 78.1906 32.475 77.8936C32.244 77.5966 32.079 77.1882 31.98 76.6685C31.8893 76.1405 31.8439 75.464 31.8439 74.639ZM33.4774 77.3862H35.6925C36.0885 77.3862 36.3608 77.3244 36.5093 77.2006C36.666 77.0769 36.7444 76.8582 36.7444 76.5447V71.8794H34.5045C34.1168 71.8794 33.8486 71.9412 33.7001 72.065C33.5516 72.1887 33.4774 72.4074 33.4774 72.7209V77.3862ZM41.7885 75.8765V78.5H40.2663V70.7656H43.4715C44.049 70.7656 44.5068 70.8522 44.8451 71.0255C45.1916 71.1987 45.4391 71.4792 45.5876 71.867C45.7443 72.2547 45.8227 72.7786 45.8227 73.4386C45.8227 74.2966 45.6536 74.9195 45.3153 75.3072C44.9771 75.6867 44.4243 75.8765 43.6571 75.8765H41.7885ZM41.7885 74.7132H43.4591C43.7478 74.7132 43.9458 74.6761 44.0531 74.6019C44.1686 74.5276 44.2263 74.3915 44.2263 74.1935V72.5476C44.2263 72.3496 44.1686 72.2135 44.0531 72.1393C43.9458 72.065 43.7478 72.0279 43.4591 72.0279H41.7885V74.7132ZM44.511 75.035L46.1816 78.5H44.5233L43.1002 75.4929L44.511 75.035Z" fill="white"/>
<defs>
<clipPath id="clip0_692_3262">
<rect width="56.25" height="56.25" fill="white" transform="translate(0 0.25)"/>
</clipPath>
</defs>
</svg>
