<svg width="57" height="81" viewBox="0 0 57 81" fill="none" xmlns="http://www.w3.org/2000/svg">
<g clip-path="url(#clip0_676_1139)">
<path d="M14.0682 26.6627C14.7083 26.6627 15.2272 27.1815 15.2272 27.8216C15.2272 28.4618 14.7083 28.9806 14.0682 28.9806C10.3595 28.9806 6.91382 26.9765 5.07607 23.7507C4.75928 23.1945 4.95335 22.4869 5.5094 22.1699C6.06571 21.853 6.7732 22.0471 7.09012 22.6033C8.51669 25.1072 11.1903 26.6627 14.0682 26.6627ZM14.0039 37.7895V46.1644C14.0039 46.8046 14.5228 47.3234 15.1629 47.3234C15.8031 47.3234 16.3219 46.8046 16.3219 46.1644V37.7895C16.3219 37.1494 15.8031 36.6305 15.1629 36.6305C14.5228 36.6305 14.0039 37.1494 14.0039 37.7895ZM31.2067 27.8216C31.2067 28.4618 31.7255 28.9806 32.3656 28.9806C34.4824 28.9806 36.518 28.3451 38.2521 27.1429C38.7781 26.7782 38.909 26.0561 38.5443 25.5301C38.1796 25.0039 37.4574 24.8731 36.9315 25.2379C35.5872 26.17 34.0084 26.6625 32.3658 26.6625C31.7255 26.6627 31.2067 27.1815 31.2067 27.8216ZM37.2279 36.5211C36.5878 36.5211 36.069 37.0399 36.069 37.68V48.8308C35.8423 49.0724 34.858 49.6653 32.3091 50.1737C29.8957 50.6551 26.7893 50.9202 23.5618 50.9202C20.3344 50.9202 17.228 50.6551 14.8146 50.1737C12.2659 49.6654 11.2814 49.0724 11.0549 48.8308V33.9805C11.491 34.0272 11.9335 34.0512 12.382 34.0512C15.2028 34.0512 17.9633 33.0768 20.1544 31.3075C20.6524 30.9054 20.7301 30.1758 20.328 29.6777C19.9259 29.1798 19.1963 29.1015 18.6982 29.5041C16.8922 30.9623 14.7081 31.7332 12.382 31.7332C6.83269 31.7332 2.31796 27.2185 2.31796 21.6693C2.31796 16.1201 6.83269 11.6056 12.3819 11.6056C12.6994 11.6056 13.0252 11.6213 13.3505 11.6522C13.8328 11.6978 14.2918 11.4401 14.5029 11.0049C16.2027 7.50436 19.6737 5.32999 23.5616 5.32999C27.4498 5.32999 30.9209 7.50449 32.6206 11.0046C32.8319 11.4399 33.2914 11.6982 33.773 11.6521C34.0975 11.6213 34.4233 11.6056 34.7415 11.6056C35.3817 11.6056 35.9005 11.0868 35.9005 10.4466C35.9005 9.80648 35.3817 9.28764 34.7415 9.28764C34.6081 9.28764 34.4738 9.28996 34.3389 9.29434C33.3434 7.53758 31.9319 6.04726 30.2208 4.95357C28.2331 3.68346 25.9306 3.01203 23.5616 3.01203C21.193 3.01203 18.8904 3.68346 16.9028 4.95383C15.1916 6.04739 13.7801 7.53771 12.7847 9.29434C12.6496 9.28996 12.5152 9.28764 12.3819 9.28764C5.5546 9.28751 0 14.842 0 21.6693C0 27.2286 3.68285 31.944 8.7369 33.5037V48.9511C8.7369 50.4445 10.3407 51.5376 13.6399 52.2927C16.3035 52.9022 19.827 53.2381 23.5618 53.2381C27.2967 53.2381 30.8203 52.9023 33.4839 52.2927C36.7831 51.5376 38.3869 50.4444 38.3869 48.9511V37.68C38.3869 37.0399 37.8681 36.5211 37.2279 36.5211ZM49.9141 8.00517C49.274 8.00517 48.7551 8.524 48.7551 9.16415V17.5391C48.7551 18.1792 49.274 18.698 49.9141 18.698C50.5543 18.698 51.0731 18.1792 51.0731 17.5391V9.16415C51.0731 8.524 50.5543 8.00517 49.9141 8.00517ZM41.1303 29.4458C39.3373 30.9208 37.0684 31.7332 34.7417 31.7332C32.4157 31.7332 30.2317 30.9625 28.4254 29.504C27.9275 29.1019 27.1976 29.1798 26.7956 29.6778C26.3935 30.1758 26.4712 30.9054 26.9694 31.3076C29.1608 33.0767 31.921 34.0512 34.7417 34.0512C37.6042 34.0512 40.3961 33.0513 42.603 31.2359C43.0974 30.8293 43.1685 30.0989 42.7617 29.6045C42.355 29.11 41.6246 29.039 41.1303 29.4458ZM56.25 5.18357V21.2809C56.25 23.5242 52.6421 24.6393 48.7402 24.8214V42.1325C50.0972 42.6115 51.0723 43.9069 51.0723 45.4259V50.9043C51.0723 52.8292 49.5062 54.3952 47.5812 54.3952C45.656 54.3952 44.09 52.8292 44.09 50.9043V45.4259C44.09 43.9067 45.0651 42.6112 46.4222 42.1325V24.8214C42.5202 24.6393 38.9123 23.5242 38.9123 21.2809V5.18357C38.9123 4.9179 39.0017 4.67284 39.1522 4.47749C40.1757 2.55024 44.2486 1.85498 47.5812 1.85498C50.9128 1.85498 54.9841 2.55011 56.0089 4.47608C56.16 4.67169 56.25 4.91713 56.25 5.18357ZM47.5811 44.2527H47.5807C46.934 44.2527 46.4078 44.7791 46.4078 45.4259V50.9043C46.4078 51.551 46.934 52.0773 47.5807 52.0773C48.2279 52.0773 48.7542 51.551 48.7542 50.9043V45.4259C48.7544 44.7791 48.2281 44.2527 47.5811 44.2527ZM53.932 5.52032C53.5752 5.09149 51.4046 4.17281 47.5812 4.17281C43.7588 4.17281 41.5883 5.09085 41.2303 5.51993V21.1833C41.5889 21.6126 43.7597 22.5303 47.5812 22.5303C51.4028 22.5303 53.5733 21.6126 53.932 21.1833V5.52032ZM45.2479 8.00517C44.6078 8.00517 44.089 8.524 44.089 9.16415V17.5391C44.089 18.1792 44.6078 18.698 45.2479 18.698C45.8881 18.698 46.4069 18.1792 46.4069 17.5391V9.16415C46.4069 8.524 45.8881 8.00517 45.2479 8.00517Z" fill="#CA5310"/>
</g>
<path d="M7.89255 62.9706V64.9877H11.1843V66.25H6.37043V58.5156H11.1596L10.9739 59.7779H7.89255V61.795H10.7141V62.9706H7.89255ZM12.9369 66.25V58.5156H14.459V64.9877H17.1939V66.25H12.9369ZM21.6226 58.5156H24.7164C25.4836 58.5156 26.0446 58.6724 26.3994 58.9859C26.7541 59.2994 26.9315 59.7902 26.9315 60.4585C26.9315 60.8957 26.8655 61.2629 26.7335 61.5599C26.6097 61.8569 26.4159 62.092 26.1519 62.2652V62.3395C26.5149 62.455 26.7995 62.6695 27.0057 62.983C27.212 63.2882 27.3151 63.6512 27.3151 64.072C27.3151 64.7732 27.1254 65.3136 26.7459 65.6931C26.3746 66.0644 25.8342 66.25 25.1247 66.25H21.6226V58.5156ZM23.1447 65.8045L22.4889 65.1362H24.8525C25.1825 65.1362 25.4176 65.0455 25.5579 64.864C25.7064 64.6825 25.7806 64.3814 25.7806 63.9606C25.7806 63.5646 25.7105 63.2882 25.5702 63.1315C25.43 62.9665 25.1949 62.884 24.8649 62.884H22.9467V61.8074H24.5307C24.8607 61.8074 25.0876 61.729 25.2114 61.5722C25.3434 61.4155 25.4094 61.135 25.4094 60.7307C25.4094 60.31 25.3475 60.0212 25.2237 59.8645C25.1 59.7077 24.8731 59.6294 24.5431 59.6294H22.4889L23.1447 58.9611V65.8045ZM31.9679 66.4356C31.3492 66.4356 30.8418 66.3944 30.4458 66.3119C30.0498 66.2376 29.7404 66.1056 29.5177 65.9159C29.2949 65.7179 29.1382 65.4456 29.0474 65.0991C28.9567 64.7526 28.9113 64.3154 28.9113 63.7874V58.5156H30.4334V65.1362H32.0298C32.434 65.1362 32.7434 65.1197 32.9579 65.0867C33.1724 65.0455 33.3168 64.9795 33.391 64.8887C33.4735 64.7897 33.5148 64.6536 33.5148 64.4804V58.5156H35.0369V63.7874C35.0369 64.3154 34.9915 64.7526 34.9008 65.0991C34.81 65.4456 34.6533 65.7179 34.4305 65.9159C34.2078 66.1056 33.8943 66.2376 33.49 66.3119C33.094 66.3944 32.5867 66.4356 31.9679 66.4356ZM38.6222 62.9706V64.9877H41.9139V66.25H37.1001V58.5156H41.8892L41.7036 59.7779H38.6222V61.795H41.4437V62.9706H38.6222ZM43.7284 66.25V58.5156H45.2134L47.9112 62.8592C48.0267 63.0572 48.1051 63.2057 48.1463 63.3047C48.1958 63.4037 48.2206 63.5192 48.2206 63.6512H48.2948V58.5156H49.8169V66.25H48.3319L45.6466 61.9064C45.5228 61.7084 45.4403 61.5599 45.3991 61.4609C45.3578 61.3619 45.3331 61.2464 45.3248 61.1144H45.2506V66.25H43.7284ZM10.4169 76.8516C10.7716 76.9506 11.1635 77.029 11.5925 77.0867C12.0297 77.1362 12.4546 77.161 12.8671 77.161C13.0734 77.161 13.2714 77.1569 13.4611 77.1486C13.6509 77.1404 13.886 77.1197 14.1665 77.0867V75.1686L13.0156 75.0696C12.4794 75.0284 12.0339 74.9624 11.6791 74.8716C11.3326 74.7809 11.0562 74.653 10.85 74.488C10.6437 74.3147 10.4994 74.0961 10.4169 73.8321C10.3344 73.5599 10.2931 73.2257 10.2931 72.8297C10.2931 72.211 10.3756 71.7201 10.5406 71.3571C10.7056 70.9941 10.9737 70.7342 11.345 70.5775C11.7162 70.4125 12.2071 70.33 12.8176 70.33C13.2631 70.33 13.6962 70.3506 14.117 70.3919C14.546 70.4331 14.9791 70.5032 15.4164 70.6022L15.2184 71.8026C14.8389 71.7284 14.4759 71.6789 14.1294 71.6541C13.7911 71.6211 13.4199 71.6046 13.0156 71.6046C12.7764 71.6046 12.5825 71.6087 12.434 71.617C12.2855 71.6252 12.1246 71.6417 11.9514 71.6665V73.6094L13.2136 73.696C13.8654 73.7455 14.381 73.8527 14.7605 74.0177C15.14 74.1745 15.4122 74.4179 15.5772 74.7479C15.7422 75.0779 15.8247 75.5151 15.8247 76.0596C15.8247 76.6371 15.7257 77.1032 15.5277 77.458C15.338 77.8045 15.0245 78.0561 14.5872 78.2129C14.1582 78.3614 13.5849 78.4356 12.8671 78.4356C12.3969 78.4356 11.9431 78.4068 11.5059 78.349C11.0686 78.2995 10.6314 78.217 10.1941 78.1015L10.4169 76.8516ZM16.6195 78.25L18.8347 70.5156H21.1612L23.3763 78.25H21.8542L20.0474 71.9387H19.936L18.1417 78.25H16.6195ZM17.8199 76.6289V75.4656H22.1883V76.6289H17.8199ZM24.7284 70.5156H27.8222C28.5894 70.5156 29.1504 70.6724 29.5052 70.9859C29.8599 71.2994 30.0373 71.7902 30.0373 72.4585C30.0373 72.8957 29.9713 73.2629 29.8393 73.5599C29.7156 73.8569 29.5217 74.092 29.2577 74.2652V74.3395C29.6207 74.455 29.9053 74.6695 30.1116 74.983C30.3178 75.2882 30.4209 75.6512 30.4209 76.072C30.4209 76.7732 30.2312 77.3136 29.8517 77.6931C29.4804 78.0644 28.9401 78.25 28.2306 78.25H24.7284V70.5156ZM26.2506 77.8045L25.5947 77.1362H27.9583C28.2883 77.1362 28.5234 77.0455 28.6637 76.864C28.8122 76.6825 28.8864 76.3814 28.8864 75.9606C28.8864 75.5646 28.8163 75.2882 28.6761 75.1315C28.5358 74.9665 28.3007 74.884 27.9707 74.884H26.0526V73.8074H27.6366C27.9666 73.8074 28.1934 73.729 28.3172 73.5722C28.4492 73.4155 28.5152 73.135 28.5152 72.7307C28.5152 72.31 28.4533 72.0212 28.3296 71.8645C28.2058 71.7077 27.9789 71.6294 27.6489 71.6294H25.5947L26.2506 70.9611V77.8045ZM31.8439 74.389C31.8439 73.564 31.8893 72.8875 31.98 72.3595C32.079 71.8315 32.244 71.419 32.475 71.122C32.7143 70.825 33.0443 70.6187 33.465 70.5032C33.894 70.3877 34.4426 70.33 35.1109 70.33C35.7626 70.33 36.303 70.3877 36.732 70.5032C37.161 70.6187 37.491 70.8291 37.722 71.1344C37.9613 71.4314 38.1304 71.8439 38.2294 72.3719C38.3284 72.8916 38.3779 73.564 38.3779 74.389C38.3779 75.214 38.3284 75.8905 38.2294 76.4185C38.1304 76.9382 37.9613 77.3466 37.722 77.6436C37.491 77.9406 37.161 78.1469 36.732 78.2624C36.303 78.3779 35.7626 78.4356 35.1109 78.4356C34.4426 78.4356 33.894 78.3779 33.465 78.2624C33.0443 78.1469 32.7143 77.9406 32.475 77.6436C32.244 77.3466 32.079 76.9382 31.98 76.4185C31.8893 75.8905 31.8439 75.214 31.8439 74.389ZM33.4774 77.1362H35.6925C36.0885 77.1362 36.3608 77.0744 36.5093 76.9506C36.666 76.8269 36.7444 76.6082 36.7444 76.2947V71.6294H34.5045C34.1168 71.6294 33.8486 71.6912 33.7001 71.815C33.5516 71.9387 33.4774 72.1574 33.4774 72.4709V77.1362ZM41.7885 75.6265V78.25H40.2663V70.5156H43.4715C44.049 70.5156 44.5068 70.6022 44.8451 70.7755C45.1916 70.9487 45.4391 71.2292 45.5876 71.617C45.7443 72.0047 45.8227 72.5286 45.8227 73.1886C45.8227 74.0466 45.6536 74.6695 45.3153 75.0572C44.9771 75.4367 44.4243 75.6265 43.6571 75.6265H41.7885ZM41.7885 74.4632H43.4591C43.7478 74.4632 43.9458 74.4261 44.0531 74.3519C44.1686 74.2776 44.2263 74.1415 44.2263 73.9435V72.2976C44.2263 72.0996 44.1686 71.9635 44.0531 71.8893C43.9458 71.815 43.7478 71.7779 43.4591 71.7779H41.7885V74.4632ZM44.511 74.785L46.1816 78.25H44.5233L43.1002 75.2429L44.511 74.785Z" fill="#CA5310"/>
<defs>
<clipPath id="clip0_676_1139">
<rect width="56.25" height="56.25" fill="white"/>
</clipPath>
</defs>
</svg>
