<svg width="26" height="26" viewBox="0 0 26 26" fill="none" xmlns="http://www.w3.org/2000/svg">
<path d="M18.4199 16.3782H17.2867L16.8851 15.9909C18.2908 14.3557 19.1371 12.2329 19.1371 9.92353C19.1371 4.77413 14.963 0.600098 9.81364 0.600098C4.66425 0.600098 0.490234 4.77413 0.490234 9.92353C0.490234 15.0729 4.66425 19.247 9.81364 19.247C12.123 19.247 14.2458 18.4007 15.881 16.995L16.2683 17.3966V18.5298L23.4402 25.6873L25.5774 23.5501L18.4199 16.3782ZM9.81364 16.3782C6.24206 16.3782 3.35898 13.4951 3.35898 9.92353C3.35898 6.35194 6.24206 3.46885 9.81364 3.46885C13.3852 3.46885 16.2683 6.35194 16.2683 9.92353C16.2683 13.4951 13.3852 16.3782 9.81364 16.3782Z" fill="#CA5310"/>
</svg>
