<svg width="36" height="37" viewBox="0 0 36 37" fill="none" xmlns="http://www.w3.org/2000/svg">
<rect y="0.375" width="36" height="36" rx="8" fill="white"/>
<path d="M21.0271 11.0764V11.0731H21.8711L22.1794 11.1347C22.385 11.1747 22.5717 11.2271 22.7394 11.2919C22.9071 11.3568 23.0694 11.4324 23.2263 11.5189C23.3832 11.6053 23.5255 11.6934 23.6532 11.783C23.7798 11.8717 23.8934 11.9657 23.9941 12.0651C24.0936 12.1656 24.2489 12.1915 24.4599 12.1429C24.6709 12.0942 24.8981 12.0267 25.1416 11.9403C25.385 11.8538 25.6258 11.7566 25.8638 11.6485C26.1019 11.5405 26.2469 11.4718 26.2988 11.4427C26.3497 11.4124 26.3768 11.3962 26.38 11.394L26.3832 11.3892L26.3995 11.3811L26.4157 11.373L26.4319 11.3649L26.4482 11.3568L26.4514 11.3519L26.4563 11.3487L26.4612 11.3454L26.4644 11.3406L26.4806 11.3357L26.4968 11.3325L26.4936 11.3568L26.4887 11.3811L26.4806 11.4054L26.4725 11.4297L26.4644 11.4459L26.4563 11.4621L26.4482 11.4864C26.4427 11.5026 26.4373 11.5242 26.4319 11.5513C26.4265 11.5783 26.3751 11.6863 26.2777 11.8754C26.1803 12.0645 26.0586 12.2563 25.9125 12.4508C25.7665 12.6453 25.6355 12.7923 25.5198 12.8917C25.4029 12.9922 25.3255 13.0624 25.2876 13.1024C25.2498 13.1435 25.2038 13.1813 25.1497 13.2159L25.0685 13.2694L25.0523 13.2775L25.0361 13.2856L25.0328 13.2904L25.028 13.2937L25.0231 13.2969L25.0198 13.3018L25.0036 13.3099L24.9874 13.318L24.9841 13.3228L24.9793 13.3261L24.9744 13.3293L24.9711 13.3342L24.9679 13.3391L24.963 13.3423L24.9582 13.3455L24.9549 13.3504H25.0361L25.4905 13.2532C25.7935 13.1883 26.083 13.11 26.3589 13.0181L26.7971 12.8723L26.8458 12.856L26.8702 12.8479L26.8864 12.8398L26.9026 12.8317L26.9188 12.8236L26.9351 12.8155L26.9675 12.8107L27 12.8074V12.8398L26.9919 12.8431L26.9838 12.8479L26.9805 12.8528L26.9757 12.856L26.9708 12.8593L26.9675 12.8641L26.9643 12.869L26.9594 12.8723L26.9546 12.8755L26.9513 12.8804L26.9481 12.8852L26.9432 12.8885L26.9351 12.9047L26.927 12.9209L26.9221 12.9241C26.9199 12.9274 26.8512 13.0192 26.716 13.1997C26.5807 13.3812 26.5077 13.473 26.4968 13.4752C26.486 13.4784 26.4709 13.4947 26.4514 13.5238C26.433 13.5541 26.3183 13.6746 26.1073 13.8853C25.8963 14.096 25.6897 14.2835 25.4873 14.4477C25.2839 14.613 25.1811 14.8162 25.1789 15.0571C25.1757 15.297 25.1632 15.5683 25.1416 15.8708C25.1199 16.1734 25.0794 16.5002 25.0198 16.8514C24.9603 17.2026 24.8684 17.5997 24.7439 18.0427C24.6195 18.4858 24.468 18.918 24.2894 19.3394C24.1109 19.7608 23.9243 20.139 23.7295 20.474C23.5347 20.809 23.3562 21.0926 23.1939 21.3249C23.0316 21.5573 22.8666 21.7761 22.6988 21.9814C22.5311 22.1867 22.319 22.4179 22.0626 22.6751C21.8051 22.9312 21.6644 23.0717 21.6406 23.0965C21.6157 23.1203 21.5097 23.2089 21.3225 23.3623C21.1363 23.5169 20.9362 23.6714 20.7219 23.8259C20.5088 23.9793 20.3129 24.1074 20.1344 24.21C19.9558 24.3127 19.7405 24.4299 19.4884 24.5618C19.2373 24.6947 18.9657 24.8179 18.6736 24.9313C18.3814 25.0448 18.073 25.1501 17.7484 25.2474C17.4238 25.3446 17.11 25.4203 16.807 25.4743C16.5041 25.5283 16.1605 25.5742 15.7764 25.6121L15.2002 25.6688V25.6769H14.1452V25.6688L14.0072 25.6607C13.9152 25.6553 13.8395 25.6499 13.78 25.6445C13.7205 25.6391 13.4959 25.6094 13.1064 25.5553C12.7169 25.5013 12.4112 25.4473 12.1894 25.3932C11.9675 25.3392 11.6375 25.2366 11.1993 25.0853C10.761 24.934 10.3861 24.7811 10.0745 24.6266C9.76394 24.4731 9.56917 24.3759 9.49017 24.3348C9.41226 24.2949 9.32462 24.2452 9.22723 24.1857L9.08115 24.0966L9.07792 24.0917L9.07304 24.0885L9.06817 24.0852L9.06492 24.0804L9.04869 24.0723L9.03246 24.0642L9.02923 24.0593L9.02435 24.0561L9.01948 24.0528L9.01623 24.048L9.013 24.0431L9.00812 24.0398H9V24.0074L9.01623 24.0107L9.03246 24.0155L9.1055 24.0236C9.15419 24.029 9.28675 24.0371 9.50316 24.048C9.71958 24.0588 9.9495 24.0588 10.193 24.048C10.4364 24.0371 10.6853 24.0128 10.9396 23.975C11.1939 23.9372 11.4941 23.8724 11.8404 23.7805C12.1867 23.6887 12.5048 23.5795 12.7948 23.4531C13.0837 23.3256 13.2893 23.2305 13.4116 23.1678C13.5327 23.1062 13.7178 22.9917 13.9666 22.8242L14.3399 22.573L14.3432 22.5681L14.3481 22.5649L14.3529 22.5616L14.3562 22.5568L14.3594 22.5519L14.3643 22.5487L14.3692 22.5454L14.3724 22.5406L14.3886 22.5357L14.4049 22.5325L14.4081 22.5163L14.413 22.5L14.4179 22.4968L14.4211 22.4919L14.2913 22.4838C14.2047 22.4784 14.1208 22.473 14.0397 22.4676C13.9585 22.4622 13.8314 22.4379 13.6583 22.3947C13.4851 22.3515 13.2985 22.2866 13.0983 22.2002C12.8981 22.1138 12.7033 22.0111 12.514 21.8922C12.3246 21.7734 12.1877 21.6745 12.1033 21.5956C12.02 21.5178 11.9118 21.4076 11.7787 21.265C11.6467 21.1213 11.532 20.9738 11.4346 20.8225C11.3372 20.6712 11.2442 20.4967 11.1555 20.2989L11.0207 20.004L11.0126 19.9796L11.0045 19.9553L10.9996 19.9391L10.9964 19.9229L11.0207 19.9262L11.0451 19.931L11.2236 19.9553C11.3427 19.9715 11.5293 19.9769 11.7836 19.9715C12.0379 19.9661 12.2137 19.9553 12.3111 19.9391C12.4085 19.9229 12.468 19.9121 12.4896 19.9067L12.5221 19.8986L12.5627 19.8905L12.6032 19.8824L12.6065 19.8775L12.6114 19.8743L12.6162 19.871L12.6195 19.8662L12.587 19.8581L12.5546 19.85L12.5221 19.8419L12.4896 19.8338L12.4572 19.8257C12.4355 19.8203 12.3977 19.8095 12.3436 19.7932C12.2895 19.777 12.1434 19.7176 11.9053 19.615C11.6673 19.5123 11.4779 19.4123 11.3372 19.3151C11.1962 19.2176 11.0618 19.1109 10.9347 18.9958C10.8081 18.8791 10.6691 18.7289 10.5176 18.5452C10.3661 18.3615 10.2308 18.1481 10.1118 17.905C9.99279 17.6618 9.90352 17.4295 9.844 17.208C9.78472 16.9878 9.74561 16.7626 9.72716 16.5354L9.69793 16.195L9.71416 16.1982L9.73039 16.2031L9.74662 16.2112L9.76285 16.2193L9.77908 16.2274L9.79531 16.2355L10.0469 16.349C10.2146 16.4246 10.4229 16.4894 10.6718 16.5435C10.9207 16.5975 11.0694 16.6272 11.1181 16.6326L11.1912 16.6407H11.3372L11.334 16.6358L11.3291 16.6326L11.3243 16.6294L11.321 16.6245L11.3178 16.6196L11.3129 16.6164L11.308 16.6132L11.3048 16.6083L11.2885 16.6002L11.2723 16.5921L11.2691 16.5872L11.2642 16.584L11.2593 16.5807L11.2561 16.5759L11.2399 16.5678L11.2236 16.5597L11.2204 16.5548C11.2171 16.5526 11.1706 16.5181 11.0808 16.4511C10.9921 16.383 10.899 16.2949 10.8016 16.1869C10.7042 16.0788 10.6069 15.9654 10.5095 15.8465C10.4119 15.7274 10.325 15.5999 10.2498 15.4656C10.174 15.3305 10.094 15.1587 10.0096 14.9502C9.92625 14.7427 9.86294 14.5336 9.81966 14.3229C9.77639 14.1122 9.75204 13.9042 9.74662 13.6989C9.74121 13.4936 9.74662 13.318 9.76285 13.1721C9.77908 13.0262 9.81154 12.8614 9.86023 12.6778C9.90893 12.4941 9.97927 12.2996 10.0712 12.0942L10.2092 11.7863L10.2173 11.762L10.2254 11.7377L10.2303 11.7344L10.2335 11.7296L10.2368 11.7247L10.2417 11.7215L10.2465 11.7247L10.2498 11.7296L10.253 11.7344L10.2579 11.7377L10.2628 11.7409L10.266 11.7458L10.2693 11.7506L10.2741 11.7539L10.2822 11.7701L10.2904 11.7863L10.2952 11.7895L10.2985 11.7944L10.5176 12.0375C10.6637 12.1996 10.8368 12.3806 11.037 12.5805C11.2372 12.7804 11.3481 12.8841 11.3697 12.8917C11.3914 12.9003 11.4184 12.9252 11.4509 12.9663C11.4833 13.0062 11.5915 13.1019 11.7755 13.2532C11.9594 13.4044 12.2002 13.58 12.4977 13.7799C12.7953 13.9798 13.1253 14.177 13.4878 14.3715C13.8503 14.566 14.2399 14.7416 14.6564 14.8983C15.073 15.055 15.3652 15.1576 15.5329 15.2063C15.7006 15.2549 15.9874 15.317 16.3931 15.3927C16.7989 15.4683 17.1046 15.5169 17.3102 15.5385C17.5158 15.5601 17.6565 15.5726 17.7322 15.5758L17.8458 15.5791L17.8426 15.5547L17.8377 15.5304L17.8052 15.3278C17.7836 15.1928 17.7728 15.0037 17.7728 14.7605C17.7728 14.5174 17.7917 14.2932 17.8296 14.0879C17.8675 13.8826 17.9243 13.6746 18 13.4639C18.0757 13.2532 18.1499 13.084 18.2224 12.9565C18.296 12.8301 18.3923 12.6859 18.5113 12.5238C18.6303 12.3617 18.7845 12.1942 18.9739 12.0213C19.1632 11.8484 19.3796 11.6944 19.6231 11.5594C19.8665 11.4243 20.0911 11.3216 20.2967 11.2514C20.5023 11.1812 20.6754 11.1352 20.8161 11.1136C20.9567 11.092 21.0271 11.0796 21.0271 11.0764Z" fill="#CA5310"/>
</svg>
